<svg width="600" height="444" viewBox="0 0 600 444" xmlns="http://www.w3.org/2000/svg" xmlns:xlink="http://www.w3.org/1999/xlink" fill="none" overflow="hidden"><path d="M89.9042 108.144 0 108.144 0 198.048 89.9042 198.048 89.9042 108.144Z" fill="#FF3495"/><path d="M349.851 353.111 594.09 353.111 594.09 443.016 349.851 443.016 349.851 353.111ZM459.942 147.919C487.651 147.919 510.096 170.364 510.096 198.073 510.096 225.782 487.651 248.227 459.942 248.227L349.851 248.227 349.851 338.131 459.942 338.131C519.501 338.131 570.507 300.763 590.709 248.227 596.718 232.641 600 215.738 600 198.073 600 120.848 537.174 58.0145 459.942 58.0145 382.709 58.0145 319.883 120.84 319.883 198.073L409.788 198.073C409.788 170.364 432.233 147.919 459.942 147.919Z" fill="#000000"/><path d="M194.813 353.111 334.871 353.111 334.871 443.016 244.967 443.016C167.62 443.016 104.909 380.304 104.909 302.957L104.909 0.984375 194.813 0.984375 194.813 108.169 299.705 108.169 299.705 198.073 194.813 198.073 194.813 353.111Z" fill="#000000"/></svg>